<svg width="510.6667" height="576" xmlns="http://www.w3.org/2000/svg">
  <path d="M1512.8 3568.22c-65.85 177.15-236.5 303.48-436.43 303.48-216.081 0-397.96-147.57-450.28-347.35H173.441c57.95 446.84 440.399 792.47 902.929 792.47 502.54 0 910.54-408 910.54-910.54 0-100.56-16.33-197.33-46.49-287.77l-808.78 196.92 112.37-174.1L0 3472.12h853.09l-69.641 96.1H1512.8M1563.04 2632.6c-140.55-88.54-306.92-139.78-485.16-139.78-494.028 0-896.849 393.67-911.579 884.11l80.551-22.32c26.007-436.15 388.41-782.31 831.028-782.31 160.95 0 311.28 45.77 438.7 124.98l.06.04zm67.6 50.85c-5.12-9.93-14.27-17.17-25.11-19.85-10.84-2.69-22.31-.56-31.47 5.83l-.02.02c-16.36 11.43-21.16 33.52-11.01 50.7 1.27 2.17 2.56 4.34 3.83 6.5 9.98 16.91 31.19 23.45 48.96 15.11.01-.01.01-.01.02-.01 9.45-4.44 16.69-12.53 20.05-22.41 3.37-9.88 2.57-20.7-2.21-29.98-1.01-1.96-2.03-3.94-3.04-5.91" style="fill:#05c2cc;fill-opacity:1;fill-rule:evenodd;stroke:none" transform="matrix(.13333 0 0 -.13333 0 576)"/>
  <path d="M1271.62 2640.5c-61.99-15.68-126.9-24.02-193.74-24.02-413.989 0-753.88 319.81-785.868 725.61l82.117-22.76c42.242-350.95 341.43-623.37 703.751-623.37 58.85 0 116.03 7.18 170.71 20.72zm78.28 27.16c-14.81-13.33-37.24-13.49-52.23-.37l-.03.03c-8.64 7.56-13.6 18.48-13.6 29.96 0 11.49 4.96 22.41 13.6 29.97.73.64 1.46 1.28 2.18 1.91 14.03 12.28 34.78 12.96 49.58 1.62.01 0 .02-.01.02-.01 9.42-7.21 15.15-18.24 15.62-30.1.47-11.85-4.36-23.3-13.17-31.24-.66-.59-1.32-1.18-1.97-1.77" style="fill:#05c2cc;fill-opacity:1;fill-rule:evenodd;stroke:none" transform="matrix(.13333 0 0 -.13333 0 576)"/>
  <path d="m1359.93 2802.78-.55-.26c-85.5-40.06-180.91-62.46-281.5-62.46-333.501 0-609.97 246.13-657.521 566.46l84.969-23.55c56.113-264.61 291.293-463.43 572.552-463.43 88.39 0 172.23 19.64 247.39 54.78l3.57 1.68zm77.82 37.34c-8.82-5.53-19.5-7.24-29.6-4.73-10.09 2.51-18.73 9.02-23.93 18.03-.46.78-.91 1.56-1.36 2.35-10.32 17.87-4.57 40.7 12.98 51.55.01.01.02.01.03.02 16.38 10.13 37.73 6.44 49.77-8.59.56-.69 1.13-1.4 1.69-2.1 6.85-8.55 9.72-19.61 7.89-30.41-1.83-10.79-8.18-20.29-17.45-26.11-.01-.01-.02-.01-.02-.01" style="fill:#fdbe02;fill-opacity:1;fill-rule:evenodd;stroke:none" transform="matrix(.13333 0 0 -.13333 0 576)"/>
  <path d="M1077.88 2863.72c-251.931 0-463.892 172.55-524.021 405.8L645 3244.26c65.281-175.73 234.57-301.06 432.88-301.07.01 0 0 0 0 0zm98.74 19.25c-9.92-15.34-29.17-21.7-46.28-15.3-.01.01-.03.01-.04.02-11.23 4.2-19.93 13.29-23.62 24.69-3.7 11.4-2 23.87 4.63 33.86 1.05 1.58 2.08 3.14 3.1 4.68 9.7 14.62 27.98 20.92 44.62 15.37.01 0 .02-.01.03-.01 11.54-3.84 20.64-12.81 24.67-24.28 4.02-11.48 2.51-24.17-4.09-34.37-1.02-1.58-2.03-3.13-3.02-4.66" style="fill:#05c2cc;fill-opacity:1;fill-rule:evenodd;stroke:none" transform="matrix(.13333 0 0 -.13333 0 576)"/>
  <path d="M3825.93 1500.96c0 187.21-157.45 337.23-352.09 337.23-193.4 0-352.09-151.26-352.09-337.23 0-185.98 158.69-337.23 352.09-337.23 194.64 0 352.09 151.25 352.09 337.23zM.0703 1502.2c0-195.89 151.2497-337.23 347.1287-337.23 119.02 0 215.723 50.83 280.18 138.86l-112.809 84.3c-47.109-60.75-100.422-84.3-168.609-84.3-89.262 0-158.691 60.75-179.762 143.82h494.66v47.11c0 199.61-136.371 342.19-328.539 342.19C142.641 1836.95.0703 1680.73.0703 1502.2zm953.3707 0c0-195.89 151.249-337.23 347.129-337.23 119.01 0 215.71 50.83 280.18 138.86l-112.82 84.3c-47.11-60.75-100.42-84.3-168.6-84.3-89.27 0-158.69 60.75-179.77 143.82h494.66v47.11c0 199.61-136.37 342.19-328.53 342.19-189.68 0-332.249-156.22-332.249-334.75zm1331.479 196.27c-64.34 83.42-150.81 139.72-275.22 139.72-198.36 0-352.09-150.02-352.09-335.99 0-185.98 153.73-337.23 352.09-337.23 125.21 0 212 57.03 276.46 141.34l-115.29 84.3c-37.2-50.83-92.98-83.06-161.17-83.06-105.38 0-190.92 86.78-190.92 194.65 0 107.86 85.54 193.41 190.92 193.41 68.19 0 123.97-32.23 161.17-83.07l114.05 83.41v-13.98h125.22v-339.71c0-91.75 59.51-161.18 176.04-161.18h126.46v140.1h-80.59c-37.19 0-60.75 16.12-60.75 49.6v311.19h141.34v140.1H2571.3v185.98h-161.16v-185.98h-125.22ZM888.969 1181.08v867.88h-162.41v-867.88zm2225.341 498.41v148.78h-43.39c-69.42 0-120.25-28.51-152.49-75.63v69.43h-161.16v-640.99h162.4v344.68c0 97.94 59.51 153.73 136.38 153.73zm550.45-178.53c0-107.87-84.3-193.41-190.92-193.41-105.38 0-190.92 85.54-190.92 193.41 0 107.86 85.54 193.41 190.92 193.41 106.62 0 190.92-85.55 190.92-193.41zM328.609 1698.09c78.102 0 145.051-47.11 168.602-126.46H168.68c22.308 78.11 84.3 126.46 159.929 126.46zm953.361 0c78.1 0 145.05-47.11 168.6-126.46h-328.53c22.32 78.11 84.31 126.46 159.93 126.46M2258.89 903.172V1.8203h162.41V320.461c57.02-47.121 127.69-75.633 205.79-75.633 190.92 0 342.17 151.25 342.17 337.231 0 184.73-151.25 337.23-342.17 337.23-78.1 0-150.01-28.508-207.03-76.867v60.75zm1456.7-321.113c0 187.211-157.45 337.23-352.09 337.23-193.4 0-352.09-151.258-352.09-337.23 0-185.981 158.69-337.231 352.09-337.231 194.64 0 352.09 151.25 352.09 337.231zm-3265.488 1.242c0-195.891 151.25-337.231 347.128-337.231 119.008 0 215.71 50.828 280.18 138.86l-112.82 84.3c-47.11-60.75-100.41-84.3-168.602-84.3-89.258 0-158.687 60.75-179.758 143.82h494.65v47.109c0 199.61-136.368 342.192-328.528 342.192-189.68 0-332.25-156.223-332.25-334.75zM301.328 262.18h126.453v140.101h-80.582c-37.187 0-60.75 16.117-60.75 49.598V763.07h141.332v140.102H286.449v185.978h-161.16V903.172H.0703V763.07H125.289V423.359c0-91.75 59.5-161.179 176.039-161.179zM1337.76 641.57c0 81.828 52.07 133.899 127.69 133.899 75.63 0 127.7-54.547 127.7-133.899V262.18h161.16v379.39c0 81.828 53.31 133.899 127.7 133.899 75.62 0 127.69-54.547 127.69-133.899V262.18h161.17v412.871c0 137.621-97.94 245.48-244.23 245.48-86.78 0-162.41-42.152-205.8-112.82-40.91 68.187-116.54 112.82-210.76 112.82-66.94 0-128.93-26.031-172.32-69.429v52.07h-161.17V262.18h161.17zm1081.06-59.511c0 107.863 86.78 195.89 194.64 195.89 106.61 0 194.64-88.027 194.64-195.89 0-109.11-88.03-194.649-194.64-194.649-107.86 0-194.64 85.539-194.64 194.649zm1135.6 0c0-107.868-84.3-193.411-190.92-193.411-105.38 0-190.92 85.543-190.92 193.411 0 107.863 85.54 193.41 190.92 193.41 106.62 0 190.92-85.547 190.92-193.41zM778.629 779.191c78.109 0 145.051-47.113 168.609-126.461H618.711c22.309 78.11 84.301 126.461 159.918 126.461" style="fill:#000;fill-opacity:1;fill-rule:nonzero;stroke:none" transform="matrix(.13333 0 0 -.13333 0 576)"/>
</svg>
