<?xml version="1.0" standalone="no"?>
<!DOCTYPE svg PUBLIC "-//W3C//DTD SVG 20010904//EN"
 "http://www.w3.org/TR/2001/REC-SVG-20010904/DTD/svg10.dtd">
<svg version="1.0" xmlns="http://www.w3.org/2000/svg"
 width="1500.000000pt" height="1500.000000pt" viewBox="0 0 1500.000000 1500.000000"
 preserveAspectRatio="xMidYMid meet">
<metadata>
Created by potrace 1.14, written by Peter Selinger 2001-2017
</metadata>
<g transform="translate(0.000000,1500.000000) scale(0.100000,-0.100000)"
fill="#000000" stroke="none">
<path d="M7860 14354 c-226 -13 -407 -27 -555 -45 -2930 -345 -5330 -2552
-5916 -5439 -23 -113 -79 -444 -79 -466 0 -2 769 -4 1708 -4 l1709 0 28 98
c241 831 806 1558 1565 2014 417 251 864 405 1370 473 163 22 534 30 705 16
505 -42 959 -175 1386 -405 566 -305 1020 -734 1353 -1281 84 -136 217 -403
260 -517 l25 -68 -2749 0 c-1513 0 -2750 -2 -2750 -5 0 -2 115 -162 255 -354
140 -193 255 -353 255 -356 0 -3 -1443 -5 -3207 -5 -1763 0 -3204 -2 -3201 -6
6 -6 9361 -2485 9364 -2481 1 1 -187 292 -417 647 -230 355 -413 646 -406 648
7 1 1375 -328 3042 -733 1666 -404 3033 -735 3037 -735 11 0 90 257 143 465
245 955 279 1960 100 2936 -340 1856 -1449 3499 -3055 4526 -950 608 -2009
964 -3145 1059 -166 13 -696 25 -825 18z"/>
<path d="M1264 7138 c33 -751 218 -1559 524 -2288 582 -1389 1640 -2575 2962
-3320 890 -502 1855 -793 2890 -871 222 -17 803 -17 1005 -1 1106 91 2097 404
3023 954 l133 79 -24 32 c-13 18 -92 127 -175 244 l-152 212 -126 -75 c-1172
-698 -2596 -989 -3981 -814 -1975 249 -3711 1418 -4692 3158 -432 766 -703
1645 -772 2500 -7 84 -17 159 -23 166 -6 8 -137 48 -291 91 -154 42 -286 78
-294 81 -12 4 -13 -20 -7 -148z"/>
<path d="M2210 6996 c0 -17 7 -90 15 -162 131 -1170 617 -2284 1389 -3184 839
-977 1980 -1661 3236 -1939 601 -133 1277 -173 1885 -111 341 35 873 136 862
164 -2 6 -41 132 -86 281 -46 148 -84 271 -86 273 -2 2 -81 -12 -177 -32 -580
-120 -1177 -148 -1738 -80 -1481 178 -2789 936 -3679 2133 -335 450 -616 994
-786 1521 -89 276 -174 646 -206 890 -6 52 -15 98 -18 102 -4 5 -143 45 -309
91 l-302 84 0 -31z"/>
<path d="M3185 6708 c3 -24 20 -110 36 -193 272 -1364 1123 -2568 2327 -3294
991 -597 2178 -833 3332 -662 339 51 688 140 1005 258 132 49 355 142 368 153
5 4 -37 115 -94 246 -56 132 -108 253 -115 271 l-14 32 -102 -46 c-735 -327
-1566 -444 -2388 -337 -366 48 -788 164 -1140 314 -958 408 -1752 1155 -2218
2086 -143 285 -266 616 -333 894 -17 74 -37 140 -43 146 -10 10 -590 174 -616
174 -8 0 -10 -13 -5 -42z"/>
<path d="M4196 6428 c82 -282 170 -510 284 -739 209 -416 474 -777 814 -1106
728 -706 1662 -1105 2689 -1149 l157 -7 0 300 0 300 -157 6 c-1154 46 -2214
675 -2830 1679 -87 141 -170 303 -234 458 -26 63 -54 118 -61 123 -11 6 -661
187 -673 187 -2 0 3 -24 11 -52z"/>
<path d="M8603 4060 c-62 -13 -114 -43 -162 -95 -125 -136 -130 -316 -11 -435
60 -60 119 -84 205 -85 121 0 217 63 282 187 24 46 28 65 28 138 0 76 -3 91
-30 139 -61 110 -193 174 -312 151z"/>
<path d="M10620 3787 c-133 -37 -212 -141 -211 -274 1 -205 202 -352 385 -283
119 45 189 145 189 270 0 188 -188 336 -363 287z"/>
<path d="M11992 2526 c-66 -22 -118 -63 -162 -129 -76 -114 -87 -216 -35 -323
30 -62 69 -98 143 -132 71 -32 173 -29 246 8 127 64 205 246 166 387 -40 142
-217 235 -358 189z"/>
<path d="M9900 2468 c-76 -30 -161 -115 -185 -187 -25 -76 -22 -159 8 -224 89
-189 317 -234 474 -93 68 61 97 123 101 217 3 66 1 83 -23 132 -68 146 -228
211 -375 155z"/>
</g>
</svg>
